# xmcd
#
# Track frame offsets:
#	150
#	14158
#	27542
#	45001
#	53962
#	66695
#	88452
#	106482
#	118998
#	131474
#
# Disc length: 1939
#
# Revision: 1
# Processed by: cddbd v1.5.1PL0 Copyright (c) Steve Scherf et al.
# Submitted via: CDex 1.50
# Normalized: r0:TDELIM( - )
#
DISCID=9707910a
DTITLE=Various Artist - Essential Blues Hits
DYEAR=1900
DGENRE=Blues
TTITLE0=Muddy Waters - Rollin' Stone
TTITLE1=Joe Turner - Shake, Rattle and Roll
TTITLE2=Otis Spann - Evil Ways
TTITLE3=Memphis Slim - I'd Take Her To Chicago
TTITLE4=Dinah Washington - All Or Nothin' Blues
TTITLE5=Howlin' Wolf - Dust My Broom
TTITLE6=Sonny Terry and Brownie McGhee - I'm A Stranger Here
TTITLE7=Lonnie Johnson - Love Is The Answer
TTITLE8=Ray Charles - Rockin' Chair Blues
TTITLE9=Mississippi John Hurt - Sliding Delta
EXTD=
EXTT0=
EXTT1=
EXTT2=
EXTT3=
EXTT4=
EXTT5=
EXTT6=
EXTT7=
EXTT8=
EXTT9=
PLAYORDER=
